<?xml version="1.0" encoding="utf-8"?>
<!-- Generator: Adobe Illustrator 23.0.1, SVG Export Plug-In . SVG Version: 6.00 Build 0)  -->
<svg version="1.1" id="Layer_1" xmlns="http://www.w3.org/2000/svg" xmlns:xlink="http://www.w3.org/1999/xlink" x="0px" y="0px"
	 viewBox="0 0 152.74 30" style="enable-background:new 0 0 152.74 30;" xml:space="preserve">
<style type="text/css">
	.st0{fill:#F7AC72;}
	.st1{fill:#DF5639;}
</style>
<g>
	<g>
		<path class="st0" d="M21.4,0h18.32v3.66H25.07v3.66h14.66v10.99H21.4v-3.66h14.66v-3.66H21.4V0z"/>
		<path class="st0" d="M43.39,0h18.32v3.66h-7.33v14.66h-3.66V3.66h-7.33V0z"/>
		<path class="st0" d="M80.03,10.99H69.04v7.33h-3.66V0H83.7v18.32h-3.66V10.99z M69.04,7.33h10.99V3.66H69.04V7.33z"/>
		<path class="st0" d="M98.36,10.99h-7.33v7.33h-3.66V0h18.32v10.99h-3.66v3.66h3.66v3.66h-3.66v-3.66h-3.66V10.99z M91.03,7.33
			h10.99V3.66H91.03V7.33z"/>
		<path class="st0" d="M109.35,0h18.32v3.66h-7.33v14.66h-3.66V3.66h-7.33V0z"/>
	</g>
	<rect x="0" y="26.53" class="st1" width="152.74" height="3.47"/>
</g>
</svg>
