<?xml version="1.0" encoding="utf-8"?>
<svg width="163.421px" height="30px" version="1.1" id="Layer_1" xmlns="http://www.w3.org/2000/svg" xmlns:xlink="http://www.w3.org/1999/xlink" x="0px" y="0px"
	 viewBox="0 0 207 38">
<style type="text/css">
	.st0{fill:#F7AC72;}
	.st1{fill:#DF5639;}
</style>
<g>
	<path class="st0" d="M17.63,0h23.21v13.92H22.27v9.28h-4.64V0z M22.27,9.28H36.2V4.64H22.27V9.28z"/>
	<path class="st0" d="M59.41,13.92h-9.28v9.28h-4.64V0h23.21v13.92h-4.64v4.64h4.64v4.64h-4.64v-4.64h-4.64V13.92z M50.12,9.28
		h13.92V4.64H50.12V9.28z"/>
	<path class="st0" d="M73.33,0h23.21v23.21H73.33V0z M77.97,18.57H91.9V4.64H77.97V18.57z"/>
	<path class="st0" d="M101.18,0h23.21v4.64h-18.57v4.64h9.28v4.64h-9.28v9.28h-4.64V0z"/>
	<path class="st0" d="M129.03,0h4.64v23.21h-4.64V0z"/>
	<path class="st0" d="M138.31,0h4.64v18.57h18.57v4.64h-23.21V0z"/>
	<path class="st0" d="M166.16,0h23.21v4.64H170.8v4.64h9.28v4.64h-9.28v4.64h18.57v4.64h-23.21V0z"/>
</g>
<rect y="33.6" class="st1" width="207" height="4.4"/>
</svg>
