<?xml version="1.0" encoding="utf-8"?>
<!-- Generator: Adobe Illustrator 23.0.1, SVG Export Plug-In . SVG Version: 6.00 Build 0)  -->
<svg version="1.1" id="Layer_1" xmlns="http://www.w3.org/2000/svg" xmlns:xlink="http://www.w3.org/1999/xlink" x="0px" y="0px"
	 viewBox="0 0 1316 1758.09" style="enable-background:new 0 0 1316 1758.09;" xml:space="preserve">
<style type="text/css">
	.st0{fill:#FFFFFF;}
</style>
<symbol  id="pixel_star" viewBox="-1.5 -1.5 3 3">
	<rect x="-1.5" y="-1.5" class="st0" width="3" height="3"/>
</symbol>
<g>
	<g>
		
			<use xlink:href="#pixel_star"  width="3" height="3" x="-1.5" y="-1.5" transform="matrix(1 0 0 -1 1.0617 1026.4628)" style="overflow:visible;"/>
		
			<use xlink:href="#pixel_star"  width="3" height="3" x="-1.5" y="-1.5" transform="matrix(1 0 0 -1 28.2653 999.2652)" style="overflow:visible;"/>
		
			<use xlink:href="#pixel_star"  width="3" height="3" x="-1.5" y="-1.5" transform="matrix(1 0 0 -1 251.3111 955.2153)" style="overflow:visible;"/>
		
			<use xlink:href="#pixel_star"  width="3" height="3" x="-1.5" y="-1.5" transform="matrix(1 0 0 -1 299.1437 993.5529)" style="overflow:visible;"/>
		
			<use xlink:href="#pixel_star"  width="3" height="3" x="-1.5" y="-1.5" transform="matrix(1 0 0 -1 146.1192 1161.626)" style="overflow:visible;"/>
		
			<use xlink:href="#pixel_star"  width="3" height="3" x="-1.5" y="-1.5" transform="matrix(1 0 0 -1 3.076 1409.2467)" style="overflow:visible;"/>
		
			<use xlink:href="#pixel_star"  width="3" height="3" x="-1.5" y="-1.5" transform="matrix(1 0 0 -1 69.7106 1590.5255)" style="overflow:visible;"/>
		
			<use xlink:href="#pixel_star"  width="3" height="3" x="-1.5" y="-1.5" transform="matrix(1 0 0 -1 440.1365 1466.2939)" style="overflow:visible;"/>
		
			<use xlink:href="#pixel_star"  width="3" height="3" x="-1.5" y="-1.5" transform="matrix(1 0 0 -1 550.4951 1149.8876)" style="overflow:visible;"/>
		
			<use xlink:href="#pixel_star"  width="3" height="3" x="-1.5" y="-1.5" transform="matrix(1 0 0 -1 764.0757 949.2694)" style="overflow:visible;"/>
		
			<use xlink:href="#pixel_star"  width="3" height="3" x="-1.5" y="-1.5" transform="matrix(1 0 0 -1 960.0195 1020.0782)" style="overflow:visible;"/>
		
			<use xlink:href="#pixel_star"  width="3" height="3" x="-1.5" y="-1.5" transform="matrix(1 0 0 -1 971.5746 1270.1547)" style="overflow:visible;"/>
		
			<use xlink:href="#pixel_star"  width="3" height="3" x="-1.5" y="-1.5" transform="matrix(1 0 0 -1 729.7302 1418.792)" style="overflow:visible;"/>
		
			<use xlink:href="#pixel_star"  width="3" height="3" x="-1.5" y="-1.5" transform="matrix(1 0 0 -1 483.8423 1302.3627)" style="overflow:visible;"/>
		
			<use xlink:href="#pixel_star"  width="3" height="3" x="-1.5" y="-1.5" transform="matrix(1 0 0 -1 296.8342 1266.1122)" style="overflow:visible;"/>
		
			<use xlink:href="#pixel_star"  width="3" height="3" x="-1.5" y="-1.5" transform="matrix(1 0 0 -1 247.1917 1401.5636)" style="overflow:visible;"/>
		
			<use xlink:href="#pixel_star"  width="3" height="3" x="-1.5" y="-1.5" transform="matrix(1 0 0 -1 432.5964 1579.4485)" style="overflow:visible;"/>
		
			<use xlink:href="#pixel_star"  width="3" height="3" x="-1.5" y="-1.5" transform="matrix(1 0 0 -1 623.1799 1561.7892)" style="overflow:visible;"/>
		
			<use xlink:href="#pixel_star"  width="3" height="3" x="-1.5" y="-1.5" transform="matrix(1 0 0 -1 904.9213 1500.8412)" style="overflow:visible;"/>
		
			<use xlink:href="#pixel_star"  width="3" height="3" x="-1.5" y="-1.5" transform="matrix(1 0 0 -1 1158.5604 1553.6357)" style="overflow:visible;"/>
		
			<use xlink:href="#pixel_star"  width="3" height="3" x="-1.5" y="-1.5" transform="matrix(1 0 0 -1 1148.1852 1611.863)" style="overflow:visible;"/>
		
			<use xlink:href="#pixel_star"  width="3" height="3" x="-1.5" y="-1.5" transform="matrix(1 0 0 -1 1009.6849 1689.679)" style="overflow:visible;"/>
		
			<use xlink:href="#pixel_star"  width="3" height="3" x="-1.5" y="-1.5" transform="matrix(1 0 0 -1 765.9742 1645.745)" style="overflow:visible;"/>
		
			<use xlink:href="#pixel_star"  width="3" height="3" x="-1.5" y="-1.5" transform="matrix(1 0 0 -1 560.063 1598.2609)" style="overflow:visible;"/>
		
			<use xlink:href="#pixel_star"  width="3" height="3" x="-1.5" y="-1.5" transform="matrix(1 0 0 -1 388.5046 1548.8302)" style="overflow:visible;"/>
		
			<use xlink:href="#pixel_star"  width="3" height="3" x="-1.5" y="-1.5" transform="matrix(1 0 0 -1 573.5993 1291.0198)" style="overflow:visible;"/>
		
			<use xlink:href="#pixel_star"  width="3" height="3" x="-1.5" y="-1.5" transform="matrix(1 0 0 -1 834.381 1222.4493)" style="overflow:visible;"/>
		
			<use xlink:href="#pixel_star"  width="3" height="3" x="-1.5" y="-1.5" transform="matrix(1 0 0 -1 1061.4678 1241.4557)" style="overflow:visible;"/>
		
			<use xlink:href="#pixel_star"  width="3" height="3" x="-1.5" y="-1.5" transform="matrix(1 0 0 -1 1009.8542 1058.3015)" style="overflow:visible;"/>
		
			<use xlink:href="#pixel_star"  width="3" height="3" x="-1.5" y="-1.5" transform="matrix(1 0 0 -1 721.6622 962.8424)" style="overflow:visible;"/>
		
			<use xlink:href="#pixel_star"  width="3" height="3" x="-1.5" y="-1.5" transform="matrix(1 0 0 -1 548.4701 956.7343)" style="overflow:visible;"/>
		
			<use xlink:href="#pixel_star"  width="3" height="3" x="-1.5" y="-1.5" transform="matrix(1 0 0 -1 428.431 1062.1029)" style="overflow:visible;"/>
		
			<use xlink:href="#pixel_star"  width="3" height="3" x="-1.5" y="-1.5" transform="matrix(1 0 0 -1 407.4125 1334.8057)" style="overflow:visible;"/>
		
			<use xlink:href="#pixel_star"  width="3" height="3" x="-1.5" y="-1.5" transform="matrix(1 0 0 -1 367.1179 1519.5664)" style="overflow:visible;"/>
		
			<use xlink:href="#pixel_star"  width="3" height="3" x="-1.5" y="-1.5" transform="matrix(1 0 0 -1 304.3936 1592.6703)" style="overflow:visible;"/>
		
			<use xlink:href="#pixel_star"  width="3" height="3" x="-1.5" y="-1.5" transform="matrix(1 0 0 -1 199.5998 1603.9199)" style="overflow:visible;"/>
		
			<use xlink:href="#pixel_star"  width="3" height="3" x="-1.5" y="-1.5" transform="matrix(1 0 0 -1 128.9679 1527.3792)" style="overflow:visible;"/>
		
			<use xlink:href="#pixel_star"  width="3" height="3" x="-1.5" y="-1.5" transform="matrix(1 0 0 -1 102.2931 1348.1589)" style="overflow:visible;"/>
		
			<use xlink:href="#pixel_star"  width="3" height="3" x="-1.5" y="-1.5" transform="matrix(1 0 0 -1 178.8131 1109.8268)" style="overflow:visible;"/>
		
			<use xlink:href="#pixel_star"  width="3" height="3" x="-1.5" y="-1.5" transform="matrix(1 0 0 -1 556.1906 1003.1019)" style="overflow:visible;"/>
		
			<use xlink:href="#pixel_star"  width="3" height="3" x="-1.5" y="-1.5" transform="matrix(1 0 0 -1 1032.8751 1104.4602)" style="overflow:visible;"/>
		
			<use xlink:href="#pixel_star"  width="3" height="3" x="-1.5" y="-1.5" transform="matrix(1 0 0 -1 1135.8671 1056.5073)" style="overflow:visible;"/>
		
			<use xlink:href="#pixel_star"  width="3" height="3" x="-1.5" y="-1.5" transform="matrix(1 0 0 -1 1204.6376 1027.8058)" style="overflow:visible;"/>
		
			<use xlink:href="#pixel_star"  width="3" height="3" x="-1.5" y="-1.5" transform="matrix(1 0 0 -1 1314.9384 1287.1733)" style="overflow:visible;"/>
		
			<use xlink:href="#pixel_star"  width="3" height="3" x="-1.5" y="-1.5" transform="matrix(1 0 0 -1 1259.8424 1508.1985)" style="overflow:visible;"/>
		
			<use xlink:href="#pixel_star"  width="3" height="3" x="-1.5" y="-1.5" transform="matrix(1 0 0 -1 1200.9838 1630.7222)" style="overflow:visible;"/>
		
			<use xlink:href="#pixel_star"  width="3" height="3" x="-1.5" y="-1.5" transform="matrix(1 0 0 -1 1137.8363 1609.281)" style="overflow:visible;"/>
		
			<use xlink:href="#pixel_star"  width="3" height="3" x="-1.5" y="-1.5" transform="matrix(1 0 0 -1 1028.8488 1409.3237)" style="overflow:visible;"/>
		
			<use xlink:href="#pixel_star"  width="3" height="3" x="-1.5" y="-1.5" transform="matrix(1 0 0 -1 1128.2474 1329.188)" style="overflow:visible;"/>
		
			<use xlink:href="#pixel_star"  width="3" height="3" x="-1.5" y="-1.5" transform="matrix(1 0 0 -1 121.3474 1724.1688)" style="overflow:visible;"/>
		
			<use xlink:href="#pixel_star"  width="3" height="3" x="-1.5" y="-1.5" transform="matrix(1 0 0 -1 201.7361 1716.6465)" style="overflow:visible;"/>
		
			<use xlink:href="#pixel_star"  width="3" height="3" x="-1.5" y="-1.5" transform="matrix(1 0 0 -1 495.1478 1720.547)" style="overflow:visible;"/>
		
			<use xlink:href="#pixel_star"  width="3" height="3" x="-1.5" y="-1.5" transform="matrix(1 0 0 -1 622.9324 1728.0979)" style="overflow:visible;"/>
		
			<use xlink:href="#pixel_star"  width="3" height="3" x="-1.5" y="-1.5" transform="matrix(1 0 0 -1 744.9461 1728.083)" style="overflow:visible;"/>
		
			<use xlink:href="#pixel_star"  width="3" height="3" x="-1.5" y="-1.5" transform="matrix(1 0 0 -1 942.9141 1748.9574)" style="overflow:visible;"/>
		
			<use xlink:href="#pixel_star"  width="3" height="3" x="-1.5" y="-1.5" transform="matrix(1 0 0 -1 1156.5615 1756.5879)" style="overflow:visible;"/>
		
			<use xlink:href="#pixel_star"  width="3" height="3" x="-1.5" y="-1.5" transform="matrix(1 0 0 -1 31.8464 879.0463)" style="overflow:visible;"/>
		
			<use xlink:href="#pixel_star"  width="3" height="3" x="-1.5" y="-1.5" transform="matrix(1 0 0 -1 108.272 896.1994)" style="overflow:visible;"/>
		
			<use xlink:href="#pixel_star"  width="3" height="3" x="-1.5" y="-1.5" transform="matrix(1 0 0 -1 171.433 901.8536)" style="overflow:visible;"/>
		
			<use xlink:href="#pixel_star"  width="3" height="3" x="-1.5" y="-1.5" transform="matrix(1 0 0 -1 1033.4791 913.1417)" style="overflow:visible;"/>
		
			<use xlink:href="#pixel_star"  width="3" height="3" x="-1.5" y="-1.5" transform="matrix(1 0 0 -1 1012.9616 913.1169)" style="overflow:visible;"/>
		
			<use xlink:href="#pixel_star"  width="3" height="3" x="-1.5" y="-1.5" transform="matrix(1 0 0 -1 832.6378 985.8221)" style="overflow:visible;"/>
		
			<use xlink:href="#pixel_star"  width="3" height="3" x="-1.5" y="-1.5" transform="matrix(1 0 0 -1 682.0175 1083.236)" style="overflow:visible;"/>
	</g>
	<g>
		
			<use xlink:href="#pixel_star"  width="3" height="3" x="-1.5" y="-1.5" transform="matrix(1 0 0 1 1.0617 731.6252)" style="overflow:visible;"/>
		
			<use xlink:href="#pixel_star"  width="3" height="3" x="-1.5" y="-1.5" transform="matrix(1 0 0 1 28.2653 758.8228)" style="overflow:visible;"/>
		
			<use xlink:href="#pixel_star"  width="3" height="3" x="-1.5" y="-1.5" transform="matrix(1 0 0 1 251.3111 802.8727)" style="overflow:visible;"/>
		
			<use xlink:href="#pixel_star"  width="3" height="3" x="-1.5" y="-1.5" transform="matrix(1 0 0 1 299.1437 764.5352)" style="overflow:visible;"/>
		
			<use xlink:href="#pixel_star"  width="3" height="3" x="-1.5" y="-1.5" transform="matrix(1 0 0 1 146.1192 596.4621)" style="overflow:visible;"/>
		
			<use xlink:href="#pixel_star"  width="3" height="3" x="-1.5" y="-1.5" transform="matrix(1 0 0 1 3.076 348.8413)" style="overflow:visible;"/>
		
			<use xlink:href="#pixel_star"  width="3" height="3" x="-1.5" y="-1.5" transform="matrix(1 0 0 1 69.7106 167.5625)" style="overflow:visible;"/>
		
			<use xlink:href="#pixel_star"  width="3" height="3" x="-1.5" y="-1.5" transform="matrix(1 0 0 1 440.1365 291.794)" style="overflow:visible;"/>
		
			<use xlink:href="#pixel_star"  width="3" height="3" x="-1.5" y="-1.5" transform="matrix(1 0 0 1 550.4951 608.2004)" style="overflow:visible;"/>
		
			<use xlink:href="#pixel_star"  width="3" height="3" x="-1.5" y="-1.5" transform="matrix(1 0 0 1 764.0757 808.8185)" style="overflow:visible;"/>
		
			<use xlink:href="#pixel_star"  width="3" height="3" x="-1.5" y="-1.5" transform="matrix(1 0 0 1 960.0195 738.0098)" style="overflow:visible;"/>
		
			<use xlink:href="#pixel_star"  width="3" height="3" x="-1.5" y="-1.5" transform="matrix(1 0 0 1 971.5746 487.9334)" style="overflow:visible;"/>
		
			<use xlink:href="#pixel_star"  width="3" height="3" x="-1.5" y="-1.5" transform="matrix(1 0 0 1 729.7302 339.2961)" style="overflow:visible;"/>
		
			<use xlink:href="#pixel_star"  width="3" height="3" x="-1.5" y="-1.5" transform="matrix(1 0 0 1 483.8423 455.7253)" style="overflow:visible;"/>
		
			<use xlink:href="#pixel_star"  width="3" height="3" x="-1.5" y="-1.5" transform="matrix(1 0 0 1 296.8342 491.9759)" style="overflow:visible;"/>
		
			<use xlink:href="#pixel_star"  width="3" height="3" x="-1.5" y="-1.5" transform="matrix(1 0 0 1 247.1917 356.5244)" style="overflow:visible;"/>
		
			<use xlink:href="#pixel_star"  width="3" height="3" x="-1.5" y="-1.5" transform="matrix(1 0 0 1 432.5964 178.6395)" style="overflow:visible;"/>
		
			<use xlink:href="#pixel_star"  width="3" height="3" x="-1.5" y="-1.5" transform="matrix(1 0 0 1 623.1799 196.2989)" style="overflow:visible;"/>
		
			<use xlink:href="#pixel_star"  width="3" height="3" x="-1.5" y="-1.5" transform="matrix(1 0 0 1 904.9213 257.2469)" style="overflow:visible;"/>
		
			<use xlink:href="#pixel_star"  width="3" height="3" x="-1.5" y="-1.5" transform="matrix(1 0 0 1 1158.5604 204.4522)" style="overflow:visible;"/>
		
			<use xlink:href="#pixel_star"  width="3" height="3" x="-1.5" y="-1.5" transform="matrix(1 0 0 1 1148.1852 146.2249)" style="overflow:visible;"/>
		
			<use xlink:href="#pixel_star"  width="3" height="3" x="-1.5" y="-1.5" transform="matrix(1 0 0 1 1009.6849 68.4091)" style="overflow:visible;"/>
		
			<use xlink:href="#pixel_star"  width="3" height="3" x="-1.5" y="-1.5" transform="matrix(1 0 0 1 765.9742 112.343)" style="overflow:visible;"/>
		
			<use xlink:href="#pixel_star"  width="3" height="3" x="-1.5" y="-1.5" transform="matrix(1 0 0 1 560.063 159.8272)" style="overflow:visible;"/>
		
			<use xlink:href="#pixel_star"  width="3" height="3" x="-1.5" y="-1.5" transform="matrix(1 0 0 1 388.5046 209.2578)" style="overflow:visible;"/>
		
			<use xlink:href="#pixel_star"  width="3" height="3" x="-1.5" y="-1.5" transform="matrix(1 0 0 1 573.5993 467.0683)" style="overflow:visible;"/>
		
			<use xlink:href="#pixel_star"  width="3" height="3" x="-1.5" y="-1.5" transform="matrix(1 0 0 1 834.381 535.6387)" style="overflow:visible;"/>
		
			<use xlink:href="#pixel_star"  width="3" height="3" x="-1.5" y="-1.5" transform="matrix(1 0 0 1 1061.4678 516.6324)" style="overflow:visible;"/>
		
			<use xlink:href="#pixel_star"  width="3" height="3" x="-1.5" y="-1.5" transform="matrix(1 0 0 1 1009.8542 699.7865)" style="overflow:visible;"/>
		
			<use xlink:href="#pixel_star"  width="3" height="3" x="-1.5" y="-1.5" transform="matrix(1 0 0 1 721.6622 795.2455)" style="overflow:visible;"/>
		
			<use xlink:href="#pixel_star"  width="3" height="3" x="-1.5" y="-1.5" transform="matrix(1 0 0 1 548.4701 801.3537)" style="overflow:visible;"/>
		
			<use xlink:href="#pixel_star"  width="3" height="3" x="-1.5" y="-1.5" transform="matrix(1 0 0 1 428.431 695.985)" style="overflow:visible;"/>
		
			<use xlink:href="#pixel_star"  width="3" height="3" x="-1.5" y="-1.5" transform="matrix(1 0 0 1 407.4125 423.2824)" style="overflow:visible;"/>
		
			<use xlink:href="#pixel_star"  width="3" height="3" x="-1.5" y="-1.5" transform="matrix(1 0 0 1 367.1179 238.5216)" style="overflow:visible;"/>
		
			<use xlink:href="#pixel_star"  width="3" height="3" x="-1.5" y="-1.5" transform="matrix(1 0 0 1 304.3936 165.4178)" style="overflow:visible;"/>
		
			<use xlink:href="#pixel_star"  width="3" height="3" x="-1.5" y="-1.5" transform="matrix(1 0 0 1 199.5998 154.1681)" style="overflow:visible;"/>
		
			<use xlink:href="#pixel_star"  width="3" height="3" x="-1.5" y="-1.5" transform="matrix(1 0 0 1 128.9679 230.7089)" style="overflow:visible;"/>
		
			<use xlink:href="#pixel_star"  width="3" height="3" x="-1.5" y="-1.5" transform="matrix(1 0 0 1 102.2931 409.9291)" style="overflow:visible;"/>
		
			<use xlink:href="#pixel_star"  width="3" height="3" x="-1.5" y="-1.5" transform="matrix(1 0 0 1 178.8131 648.2612)" style="overflow:visible;"/>
		
			<use xlink:href="#pixel_star"  width="3" height="3" x="-1.5" y="-1.5" transform="matrix(1 0 0 1 556.1906 754.9861)" style="overflow:visible;"/>
		
			<use xlink:href="#pixel_star"  width="3" height="3" x="-1.5" y="-1.5" transform="matrix(1 0 0 1 1032.8751 653.6277)" style="overflow:visible;"/>
		
			<use xlink:href="#pixel_star"  width="3" height="3" x="-1.5" y="-1.5" transform="matrix(1 0 0 1 1135.8671 701.5807)" style="overflow:visible;"/>
		
			<use xlink:href="#pixel_star"  width="3" height="3" x="-1.5" y="-1.5" transform="matrix(1 0 0 1 1204.6376 730.2822)" style="overflow:visible;"/>
		
			<use xlink:href="#pixel_star"  width="3" height="3" x="-1.5" y="-1.5" transform="matrix(1 0 0 1 1314.9384 470.9147)" style="overflow:visible;"/>
		
			<use xlink:href="#pixel_star"  width="3" height="3" x="-1.5" y="-1.5" transform="matrix(1 0 0 1 1259.8424 249.8895)" style="overflow:visible;"/>
		
			<use xlink:href="#pixel_star"  width="3" height="3" x="-1.5" y="-1.5" transform="matrix(1 0 0 1 1200.9838 127.3659)" style="overflow:visible;"/>
		
			<use xlink:href="#pixel_star"  width="3" height="3" x="-1.5" y="-1.5" transform="matrix(1 0 0 1 1137.8363 148.807)" style="overflow:visible;"/>
		
			<use xlink:href="#pixel_star"  width="3" height="3" x="-1.5" y="-1.5" transform="matrix(1 0 0 1 1028.8488 348.7643)" style="overflow:visible;"/>
		
			<use xlink:href="#pixel_star"  width="3" height="3" x="-1.5" y="-1.5" transform="matrix(1 0 0 1 1128.2474 428.9001)" style="overflow:visible;"/>
		
			<use xlink:href="#pixel_star"  width="3" height="3" x="-1.5" y="-1.5" transform="matrix(1 0 0 1 121.3474 33.9192)" style="overflow:visible;"/>
		
			<use xlink:href="#pixel_star"  width="3" height="3" x="-1.5" y="-1.5" transform="matrix(1 0 0 1 201.7361 41.4416)" style="overflow:visible;"/>
		
			<use xlink:href="#pixel_star"  width="3" height="3" x="-1.5" y="-1.5" transform="matrix(1 0 0 1 495.1478 37.541)" style="overflow:visible;"/>
		
			<use xlink:href="#pixel_star"  width="3" height="3" x="-1.5" y="-1.5" transform="matrix(1 0 0 1 622.9324 29.9901)" style="overflow:visible;"/>
		
			<use xlink:href="#pixel_star"  width="3" height="3" x="-1.5" y="-1.5" transform="matrix(1 0 0 1 744.9461 30.005)" style="overflow:visible;"/>
		
			<use xlink:href="#pixel_star"  width="3" height="3" x="-1.5" y="-1.5" transform="matrix(1 0 0 1 942.9141 9.1306)" style="overflow:visible;"/>
		
			<use xlink:href="#pixel_star"  width="3" height="3" x="-1.5" y="-1.5" transform="matrix(1 0 0 1 1156.5615 1.5002)" style="overflow:visible;"/>
		
			<use xlink:href="#pixel_star"  width="3" height="3" x="-1.5" y="-1.5" transform="matrix(1 0 0 1 31.8464 879.0417)" style="overflow:visible;"/>
		
			<use xlink:href="#pixel_star"  width="3" height="3" x="-1.5" y="-1.5" transform="matrix(1 0 0 1 108.272 861.8885)" style="overflow:visible;"/>
		
			<use xlink:href="#pixel_star"  width="3" height="3" x="-1.5" y="-1.5" transform="matrix(1 0 0 1 171.433 856.2344)" style="overflow:visible;"/>
		
			<use xlink:href="#pixel_star"  width="3" height="3" x="-1.5" y="-1.5" transform="matrix(1 0 0 1 1033.4791 844.9463)" style="overflow:visible;"/>
		
			<use xlink:href="#pixel_star"  width="3" height="3" x="-1.5" y="-1.5" transform="matrix(1 0 0 1 1012.9616 844.9711)" style="overflow:visible;"/>
		
			<use xlink:href="#pixel_star"  width="3" height="3" x="-1.5" y="-1.5" transform="matrix(1 0 0 1 832.6378 772.2659)" style="overflow:visible;"/>
		
			<use xlink:href="#pixel_star"  width="3" height="3" x="-1.5" y="-1.5" transform="matrix(1 0 0 1 682.0175 674.8521)" style="overflow:visible;"/>
	</g>
</g>
</svg>
