<?xml version="1.0" encoding="utf-8"?>
<!-- Generator: Adobe Illustrator 23.0.1, SVG Export Plug-In . SVG Version: 6.00 Build 0)  -->
<svg width="1316px" height="880px" version="1.1" id="Layer_1" xmlns="http://www.w3.org/2000/svg" xmlns:xlink="http://www.w3.org/1999/xlink" x="0px" y="0px"
	 viewBox="0 0 1316 880" style="enable-background:new 0 0 1316 880;" xml:space="preserve">
<style type="text/css">
	.st0{fill:#FFFFFF;}
	.st1{fill:url(#SVGID_1_);}
</style>
<symbol  id="pixel_star" viewBox="-1.5 -1.5 3 3">
	<rect x="-1.5" y="-1.5" class="st0" width="3" height="3"/>
</symbol>
<g>
	
		<use xlink:href="#pixel_star"  width="3" height="3" x="-1.5" y="-1.5" transform="matrix(1 0 0 -1 1.0617 148.6457)" style="overflow:visible;"/>
	
		<use xlink:href="#pixel_star"  width="3" height="3" x="-1.5" y="-1.5" transform="matrix(1 0 0 -1 28.2653 121.4482)" style="overflow:visible;"/>
	
		<use xlink:href="#pixel_star"  width="3" height="3" x="-1.5" y="-1.5" transform="matrix(1 0 0 -1 251.3111 77.3983)" style="overflow:visible;"/>
	
		<use xlink:href="#pixel_star"  width="3" height="3" x="-1.5" y="-1.5" transform="matrix(1 0 0 -1 299.1437 115.7358)" style="overflow:visible;"/>
	
		<use xlink:href="#pixel_star"  width="3" height="3" x="-1.5" y="-1.5" transform="matrix(1 0 0 -1 146.1192 283.8089)" style="overflow:visible;"/>
	
		<use xlink:href="#pixel_star"  width="3" height="3" x="-1.5" y="-1.5" transform="matrix(1 0 0 -1 3.076 531.4296)" style="overflow:visible;"/>
	
		<use xlink:href="#pixel_star"  width="3" height="3" x="-1.5" y="-1.5" transform="matrix(1 0 0 -1 69.7106 712.7085)" style="overflow:visible;"/>
	
		<use xlink:href="#pixel_star"  width="3" height="3" x="-1.5" y="-1.5" transform="matrix(1 0 0 -1 440.1365 588.4769)" style="overflow:visible;"/>
	
		<use xlink:href="#pixel_star"  width="3" height="3" x="-1.5" y="-1.5" transform="matrix(1 0 0 -1 550.4951 272.0706)" style="overflow:visible;"/>
	
		<use xlink:href="#pixel_star"  width="3" height="3" x="-1.5" y="-1.5" transform="matrix(1 0 0 -1 764.0757 71.4524)" style="overflow:visible;"/>
	
		<use xlink:href="#pixel_star"  width="3" height="3" x="-1.5" y="-1.5" transform="matrix(1 0 0 -1 960.0195 142.2612)" style="overflow:visible;"/>
	
		<use xlink:href="#pixel_star"  width="3" height="3" x="-1.5" y="-1.5" transform="matrix(1 0 0 -1 971.5746 392.3376)" style="overflow:visible;"/>
	
		<use xlink:href="#pixel_star"  width="3" height="3" x="-1.5" y="-1.5" transform="matrix(1 0 0 -1 729.7302 540.9749)" style="overflow:visible;"/>
	
		<use xlink:href="#pixel_star"  width="3" height="3" x="-1.5" y="-1.5" transform="matrix(1 0 0 -1 483.8423 424.5457)" style="overflow:visible;"/>
	
		<use xlink:href="#pixel_star"  width="3" height="3" x="-1.5" y="-1.5" transform="matrix(1 0 0 -1 296.8342 388.2951)" style="overflow:visible;"/>
	
		<use xlink:href="#pixel_star"  width="3" height="3" x="-1.5" y="-1.5" transform="matrix(1 0 0 -1 247.1917 523.7465)" style="overflow:visible;"/>
	
		<use xlink:href="#pixel_star"  width="3" height="3" x="-1.5" y="-1.5" transform="matrix(1 0 0 -1 432.5964 701.6315)" style="overflow:visible;"/>
	
		<use xlink:href="#pixel_star"  width="3" height="3" x="-1.5" y="-1.5" transform="matrix(1 0 0 -1 623.1799 683.9721)" style="overflow:visible;"/>
	
		<use xlink:href="#pixel_star"  width="3" height="3" x="-1.5" y="-1.5" transform="matrix(1 0 0 -1 904.9213 623.0241)" style="overflow:visible;"/>
	
		<use xlink:href="#pixel_star"  width="3" height="3" x="-1.5" y="-1.5" transform="matrix(1 0 0 -1 1158.5604 675.8187)" style="overflow:visible;"/>
	
		<use xlink:href="#pixel_star"  width="3" height="3" x="-1.5" y="-1.5" transform="matrix(1 0 0 -1 1148.1852 734.046)" style="overflow:visible;"/>
	
		<use xlink:href="#pixel_star"  width="3" height="3" x="-1.5" y="-1.5" transform="matrix(1 0 0 -1 1009.6849 811.8619)" style="overflow:visible;"/>
	
		<use xlink:href="#pixel_star"  width="3" height="3" x="-1.5" y="-1.5" transform="matrix(1 0 0 -1 765.9742 767.928)" style="overflow:visible;"/>
	
		<use xlink:href="#pixel_star"  width="3" height="3" x="-1.5" y="-1.5" transform="matrix(1 0 0 -1 560.063 720.4438)" style="overflow:visible;"/>
	
		<use xlink:href="#pixel_star"  width="3" height="3" x="-1.5" y="-1.5" transform="matrix(1 0 0 -1 388.5046 671.0131)" style="overflow:visible;"/>
	
		<use xlink:href="#pixel_star"  width="3" height="3" x="-1.5" y="-1.5" transform="matrix(1 0 0 -1 573.5993 413.2027)" style="overflow:visible;"/>
	
		<use xlink:href="#pixel_star"  width="3" height="3" x="-1.5" y="-1.5" transform="matrix(1 0 0 -1 834.381 344.6323)" style="overflow:visible;"/>
	
		<use xlink:href="#pixel_star"  width="3" height="3" x="-1.5" y="-1.5" transform="matrix(1 0 0 -1 1061.4678 363.6386)" style="overflow:visible;"/>
	
		<use xlink:href="#pixel_star"  width="3" height="3" x="-1.5" y="-1.5" transform="matrix(1 0 0 -1 1009.8542 180.4845)" style="overflow:visible;"/>
	
		<use xlink:href="#pixel_star"  width="3" height="3" x="-1.5" y="-1.5" transform="matrix(1 0 0 -1 721.6622 85.0254)" style="overflow:visible;"/>
	
		<use xlink:href="#pixel_star"  width="3" height="3" x="-1.5" y="-1.5" transform="matrix(1 0 0 -1 548.4701 78.9173)" style="overflow:visible;"/>
	
		<use xlink:href="#pixel_star"  width="3" height="3" x="-1.5" y="-1.5" transform="matrix(1 0 0 -1 428.431 184.2859)" style="overflow:visible;"/>
	
		<use xlink:href="#pixel_star"  width="3" height="3" x="-1.5" y="-1.5" transform="matrix(1 0 0 -1 407.4125 456.9886)" style="overflow:visible;"/>
	
		<use xlink:href="#pixel_star"  width="3" height="3" x="-1.5" y="-1.5" transform="matrix(1 0 0 -1 367.1179 641.7493)" style="overflow:visible;"/>
	
		<use xlink:href="#pixel_star"  width="3" height="3" x="-1.5" y="-1.5" transform="matrix(1 0 0 -1 304.3936 714.8532)" style="overflow:visible;"/>
	
		<use xlink:href="#pixel_star"  width="3" height="3" x="-1.5" y="-1.5" transform="matrix(1 0 0 -1 199.5998 726.1029)" style="overflow:visible;"/>
	
		<use xlink:href="#pixel_star"  width="3" height="3" x="-1.5" y="-1.5" transform="matrix(1 0 0 -1 128.9679 649.5621)" style="overflow:visible;"/>
	
		<use xlink:href="#pixel_star"  width="3" height="3" x="-1.5" y="-1.5" transform="matrix(1 0 0 -1 102.2931 470.3419)" style="overflow:visible;"/>
	
		<use xlink:href="#pixel_star"  width="3" height="3" x="-1.5" y="-1.5" transform="matrix(1 0 0 -1 178.8131 232.0098)" style="overflow:visible;"/>
	
		<use xlink:href="#pixel_star"  width="3" height="3" x="-1.5" y="-1.5" transform="matrix(1 0 0 -1 556.1906 125.2849)" style="overflow:visible;"/>
	
		<use xlink:href="#pixel_star"  width="3" height="3" x="-1.5" y="-1.5" transform="matrix(1 0 0 -1 1032.8751 226.6432)" style="overflow:visible;"/>
	
		<use xlink:href="#pixel_star"  width="3" height="3" x="-1.5" y="-1.5" transform="matrix(1 0 0 -1 1135.8671 178.6903)" style="overflow:visible;"/>
	
		<use xlink:href="#pixel_star"  width="3" height="3" x="-1.5" y="-1.5" transform="matrix(1 0 0 -1 1204.6376 149.9888)" style="overflow:visible;"/>
	
		<use xlink:href="#pixel_star"  width="3" height="3" x="-1.5" y="-1.5" transform="matrix(1 0 0 -1 1314.9384 409.3563)" style="overflow:visible;"/>
	
		<use xlink:href="#pixel_star"  width="3" height="3" x="-1.5" y="-1.5" transform="matrix(1 0 0 -1 1259.8424 630.3815)" style="overflow:visible;"/>
	
		<use xlink:href="#pixel_star"  width="3" height="3" x="-1.5" y="-1.5" transform="matrix(1 0 0 -1 1200.9838 752.9051)" style="overflow:visible;"/>
	
		<use xlink:href="#pixel_star"  width="3" height="3" x="-1.5" y="-1.5" transform="matrix(1 0 0 -1 1137.8363 731.4639)" style="overflow:visible;"/>
	
		<use xlink:href="#pixel_star"  width="3" height="3" x="-1.5" y="-1.5" transform="matrix(1 0 0 -1 1028.8488 531.5067)" style="overflow:visible;"/>
	
		<use xlink:href="#pixel_star"  width="3" height="3" x="-1.5" y="-1.5" transform="matrix(1 0 0 -1 1128.2474 451.3709)" style="overflow:visible;"/>
	
		<use xlink:href="#pixel_star"  width="3" height="3" x="-1.5" y="-1.5" transform="matrix(1 0 0 -1 121.3474 846.3518)" style="overflow:visible;"/>
	
		<use xlink:href="#pixel_star"  width="3" height="3" x="-1.5" y="-1.5" transform="matrix(1 0 0 -1 201.7361 838.8294)" style="overflow:visible;"/>
	
		<use xlink:href="#pixel_star"  width="3" height="3" x="-1.5" y="-1.5" transform="matrix(1 0 0 -1 495.1478 842.73)" style="overflow:visible;"/>
	
		<use xlink:href="#pixel_star"  width="3" height="3" x="-1.5" y="-1.5" transform="matrix(1 0 0 -1 622.9324 850.2808)" style="overflow:visible;"/>
	
		<use xlink:href="#pixel_star"  width="3" height="3" x="-1.5" y="-1.5" transform="matrix(1 0 0 -1 744.9461 850.2659)" style="overflow:visible;"/>
	
		<use xlink:href="#pixel_star"  width="3" height="3" x="-1.5" y="-1.5" transform="matrix(1 0 0 -1 942.9141 871.1404)" style="overflow:visible;"/>
	
		<use xlink:href="#pixel_star"  width="3" height="3" x="-1.5" y="-1.5" transform="matrix(1 0 0 -1 1156.5615 878.7708)" style="overflow:visible;"/>
	
		<use xlink:href="#pixel_star"  width="3" height="3" x="-1.5" y="-1.5" transform="matrix(1 0 0 -1 31.8464 1.2293)" style="overflow:visible;"/>
	
		<use xlink:href="#pixel_star"  width="3" height="3" x="-1.5" y="-1.5" transform="matrix(1 0 0 -1 108.272 18.3824)" style="overflow:visible;"/>
	
		<use xlink:href="#pixel_star"  width="3" height="3" x="-1.5" y="-1.5" transform="matrix(1 0 0 -1 171.433 24.0366)" style="overflow:visible;"/>
	
		<use xlink:href="#pixel_star"  width="3" height="3" x="-1.5" y="-1.5" transform="matrix(1 0 0 -1 1033.4791 35.3247)" style="overflow:visible;"/>
	
		<use xlink:href="#pixel_star"  width="3" height="3" x="-1.5" y="-1.5" transform="matrix(1 0 0 -1 1012.9616 35.2999)" style="overflow:visible;"/>
	
		<use xlink:href="#pixel_star"  width="3" height="3" x="-1.5" y="-1.5" transform="matrix(1 0 0 -1 832.6378 108.0051)" style="overflow:visible;"/>
	
		<use xlink:href="#pixel_star"  width="3" height="3" x="-1.5" y="-1.5" transform="matrix(1 0 0 -1 682.0175 205.4189)" style="overflow:visible;"/>
</g>
</svg>
