<?xml version="1.0" encoding="utf-8"?>
<svg width="368.47px" height="200" version="1.1" id="Layer_1" xmlns="http://www.w3.org/2000/svg" xmlns:xlink="http://www.w3.org/1999/xlink" x="0px" y="0px"
	 viewBox="0 0 368.47 200">
<style type="text/css">
	.st0{fill:#F7AC72;}
	.st1{fill:#DF6839;}
	.st2{fill:#A86A2D;}
	.st3{fill:#E38342;}
</style>
<g>
	<rect x="93.99" y="158.01" class="st0" width="28.06" height="41.99"/>
	<polygon class="st1" points="0,119.55 41.11,78.43 187.98,78.43 146.87,119.55 	"/>
	<rect y="119.55" class="st0" width="146.87" height="8.94"/>
	<polygon class="st2" points="146.87,128.49 187.98,87.37 187.98,78.43 146.87,119.55 	"/>
	<polygon class="st1" points="252,0 93.99,158.01 122.05,158.01 280.06,0 	"/>
	<polygon class="st3" points="280.06,0 122.05,158.01 122.05,200 280.06,41.99 	"/>
	<polygon class="st1" points="180.49,119.55 221.6,78.43 368.47,78.43 327.35,119.55 	"/>
	<rect x="180.49" y="119.55" class="st0" width="146.87" height="8.94"/>
	<polygon class="st3" points="327.35,128.49 368.47,87.37 368.47,78.43 327.35,119.55 	"/>
</g>
</svg>
