<?xml version="1.0" encoding="utf-8"?>
<svg width="163.421px" height="30px" version="1.1" id="Layer_1" xmlns="http://www.w3.org/2000/svg" xmlns:xlink="http://www.w3.org/1999/xlink" x="0px" y="0px"
	 viewBox="0 0 207 38">
<style type="text/css">
	.st0{fill:#F7AC72;}
	.st1{fill:#DF5639;}
</style>
<rect y="33.6" class="st1" width="207" height="4.4"/>
<g>
	<path class="st0" d="M36.2,0h4.64v18.57h13.93V0h4.64v23.21H36.2V0z"/>
	<path class="st0" d="M64.05,0h23.21v4.64H68.69v4.64h18.57v13.93H64.05v-4.64h18.57v-4.64H64.05V0z"/>
	<path class="st0" d="M91.9,0h23.21v4.64H96.54v4.64h9.28v4.64h-9.28v4.64h18.57v4.64H91.9V0z"/>
	<path class="st0" d="M133.67,13.93h-9.28v9.28h-4.64V0h23.21v13.93h-4.64v4.64h4.64v4.64h-4.64v-4.64h-4.64V13.93z M124.39,9.28
		h13.92V4.64h-13.92V9.28z"/>
	<path class="st0" d="M147.59,0h23.21v4.64h-18.57v4.64h18.57v13.93h-23.21v-4.64h18.57v-4.64h-18.57V0z"/>
</g>
</svg>
